<svg width="333" height="115" viewBox="0 0 333 115" fill="none" xmlns="http://www.w3.org/2000/svg">
<path d="M143.289 22.1773H163.832C165.949 22.1773 167.83 23.0973 169.146 24.5353V19.0224C169.146 15.0687 165.927 11.8486 161.932 11.8486L141.388 11.8486C137.395 11.8486 134.174 15.0687 134.174 19.0224V81.5086C134.174 83.3674 134.905 85.0484 136.073 86.3245V29.3517C136.073 25.3974 139.293 22.1773 143.289 22.1773Z" fill="white"/>
<path d="M307.677 94.8136C308.502 95.0224 309.249 95.3678 309.918 95.8055C310.209 95.3982 310.541 95.0239 310.749 94.5525C311.158 93.5742 311.362 92.5958 311.362 91.6177C311.362 88.3568 309.161 85.3405 305.776 84.4846L292.179 81.1337L253.26 81.4033L307.677 94.8136Z" fill="#FFCC99"/>
<path d="M258.396 107.286C258.691 107.464 258.911 107.702 259.173 107.907C259.944 106.647 260.37 105.237 260.37 103.805C260.37 102.613 260.067 101.435 259.543 100.343L240.909 96.6887L258.396 107.286Z" fill="#FFCC99"/>
<path d="M309.224 37.3812C309.428 37.3812 309.632 37.3406 309.794 37.3406C311.313 37.3406 312.704 37.8627 313.892 38.6762C315.083 36.9813 315.582 34.81 315.029 32.6369C314.214 29.3351 311.278 27.0117 307.896 27.0117C307.732 27.0117 307.529 27.0526 307.325 27.0526L280.107 29.0254L248.491 41.7835L309.224 37.3812Z" fill="#FFCC99"/>
<path d="M324.143 65.0175C325.857 65.1 327.408 65.7337 328.667 66.7209C329.388 65.5238 329.825 64.1355 329.825 62.6368C329.825 58.3569 326.483 54.8921 322.243 54.6884L301.208 53.7361L253.913 61.8378L324.143 65.0175Z" fill="#FFCC99"/>
<path d="M202.472 36.1177L280.57 13.3735C281.262 13.1694 281.916 13.0883 282.607 13.0883C283.97 13.0883 285.292 13.4884 286.429 14.2038C287.981 12.1078 288.366 9.25515 287.108 6.71297C285.886 4.22649 283.359 2.759 280.709 2.759C280.015 2.759 279.364 2.84053 278.67 3.04445L200.573 25.789L169.146 25.789V74.7018H171.046V36.1177H202.472Z" fill="white"/>
<path d="M200.573 85.2179L248.63 110.816C251.28 112.242 254.539 112.039 256.985 110.286C257.932 109.627 258.627 108.799 259.173 107.907C258.911 107.702 258.691 107.464 258.396 107.286L240.909 96.6886L259.543 100.343C258.901 99.0082 257.91 97.8093 256.498 96.9571L239.011 86.3593L302.598 98.8322C305.472 99.3861 308.268 98.1077 309.918 95.8053C309.249 95.3676 308.501 95.0222 307.677 94.8135L253.26 81.4031L292.179 81.1335L251.361 71.074L321.958 70.5849C324.82 70.5579 327.291 69.0071 328.667 66.7207C327.409 65.7335 325.857 65.0998 324.144 65.0173L253.913 61.8376L301.208 53.7359L252.013 51.5089L309.118 41.7264C311.142 41.3762 312.803 40.2238 313.892 38.6762C312.705 37.8626 311.313 37.3405 309.795 37.3405C309.633 37.3405 309.429 37.3812 309.224 37.3812L248.491 41.7835L280.108 29.0253L246.593 31.4546L283.359 16.6178C284.647 16.0943 285.668 15.233 286.429 14.2038C285.292 13.4883 283.97 13.0882 282.607 13.0882C281.916 13.0882 281.262 13.1694 280.57 13.3735L202.472 36.1176H171.046V74.7017H188.344L200.573 85.2179Z" fill="#FFCC99"/>
<path d="M252.012 51.509L309.118 41.7265C313.358 40.9927 316.089 36.7944 315.029 32.6369C314.214 29.3351 311.279 27.0117 307.896 27.0117C307.732 27.0117 307.53 27.0526 307.326 27.0526L246.593 31.4546" stroke="#231F20" stroke-width="5.17202" stroke-miterlimit="10"/>
<path d="M251.36 71.0743L321.957 70.5851C326.319 70.5444 329.825 66.9983 329.825 62.6369C329.825 58.357 326.483 54.8922 322.243 54.6885L252.012 51.5091" stroke="#231F20" stroke-width="5.17202" stroke-miterlimit="10"/>
<path d="M239.01 86.3593L302.598 98.8322C305.98 99.4843 309.363 97.6908 310.748 94.5523C311.157 93.574 311.361 92.5957 311.361 91.6176C311.361 88.3567 309.16 85.3404 305.776 84.4844L251.361 71.0741" stroke="#231F20" stroke-width="5.17202" stroke-miterlimit="10"/>
<path d="M246.593 31.4546L283.359 16.6178C287.272 15.0282 288.983 10.5037 287.108 6.71297C285.886 4.22649 283.359 2.759 280.709 2.759C280.015 2.759 279.364 2.84053 278.67 3.04445L200.573 25.789L169.146 25.789V74.7018H188.344L200.573 85.218L248.63 110.816C251.28 112.242 254.539 112.039 256.985 110.286C259.269 108.696 260.37 106.251 260.37 103.805C260.37 101.155 259.065 98.5061 256.498 96.9571L239.011 86.3594L236.891 67.0796L215.94 56.1965" stroke="#231F20" stroke-width="5.17202" stroke-miterlimit="10"/>
<rect x="170.129" y="8.3197" width="78.59" height="33.9218" rx="8.89991" transform="rotate(90 170.129 8.3197)" fill="white" stroke="#231F20" stroke-width="4.44995"/>
<rect x="167.904" y="17.9128" width="66.7721" height="29.4718" rx="5.56244" transform="rotate(90 167.904 17.9128)" fill="#FFB800"/>
<path d="M-184 14L136 14" stroke="#231F20" stroke-width="4.13"/>
<path d="M-184 78L136 78" stroke="#231F20" stroke-width="4.13"/>
</svg>
