<svg width="297" height="107" viewBox="0 0 297 107" fill="none" xmlns="http://www.w3.org/2000/svg">
<path d="M275.739 32.7619L293.394 70.0345C293.528 70.3171 293.567 70.6201 293.676 70.9064C294.905 67.7942 294.864 64.2934 293.394 61.196L275.739 23.9216C273.183 18.5355 267.758 15.1147 261.819 15.1147L169.696 15.1147V23.9531L261.819 23.9531C267.758 23.9531 273.183 27.374 275.739 32.7619Z" fill="white"/>
<path d="M193.917 74.2493C194.664 78.2205 197.299 81.6413 200.995 83.3722L243.222 103.109C245.818 104.329 248.805 104.29 251.362 103.031L262.528 97.4089C266.224 95.5609 268.583 91.8258 268.583 87.6966V86.4789L274.441 88.4831C278.215 89.7808 282.423 88.3659 284.626 85.0232L292.527 73.2267C293.018 72.4961 293.362 71.7059 293.676 70.9065C293.567 70.6202 293.528 70.3171 293.394 70.0345L275.739 32.7619C273.183 27.3741 267.758 23.9532 261.819 23.9532L169.696 23.9532V70.5923V70.6722H193.248L193.917 74.2493Z" fill="#FFCC99"/>
<path d="M142.92 14.6742L162.776 14.6742C166.591 14.6742 169.696 17.7808 169.696 21.594V15.1148V12.7555C169.696 8.94232 166.591 5.83566 162.776 5.83566L142.92 5.83566C139.107 5.83566 136 8.94232 136 12.7555V21.594C136 17.7808 139.107 14.6742 142.92 14.6742Z" fill="white"/>
<path d="M169.696 70.5922V15.1147L261.819 15.1147C267.758 15.1147 273.183 18.5355 275.739 23.9216L293.394 61.196C295.242 65.0891 294.928 69.6497 292.527 73.2267L284.626 85.0231C282.423 88.3659 278.215 89.7807 274.441 88.483L268.583 86.4788L245.739 78.6536L233.787 74.5653C229.58 73.1096 226.748 69.1384 226.748 64.695V44.8391C226.748 41.8123 229.225 39.3341 232.292 39.3341H233.079C240.116 39.3341 245.818 45.0361 245.818 52.0749V54.7875" stroke="#231F20" stroke-width="4.13027" stroke-miterlimit="10"/>
<path d="M268.583 86.438V87.6967C268.583 91.8259 266.224 95.561 262.528 97.409L251.362 103.031C248.805 104.29 245.818 104.329 243.222 103.109L200.995 83.3722C197.299 81.6414 194.664 78.2205 193.917 74.2493L193.248 70.6723H169.696" stroke="#231F20" stroke-width="4.13027" stroke-miterlimit="10"/>
<path d="M245.74 78.6537V87.9719" stroke="#231F20" stroke-width="4.13027" stroke-miterlimit="10"/>
<path d="M228.202 41.0651L221.243 48.26C217.941 51.6809 213.42 53.607 208.701 53.607H199.617" stroke="#231F20" stroke-width="4.13027" stroke-miterlimit="10"/>
<rect x="170.676" y="2.16432" width="77.5573" height="33.0422" rx="7.3427" transform="rotate(90 170.676 2.16432)" fill="white" stroke="#231F20" stroke-width="3.67135"/>
<rect x="168.84" y="11.3427" width="66.5432" height="29.3708" rx="4.58919" transform="rotate(90 168.84 11.3427)" fill="#FFB800"/>
<path d="M-184 10L136 9.99997" stroke="#231F20" stroke-width="4.13"/>
<path d="M-184 74L136 74" stroke="#231F20" stroke-width="4.13"/>
</svg>
