<svg width="363" height="113" viewBox="0 0 363 113" fill="none" xmlns="http://www.w3.org/2000/svg">
<path d="M342.755 104.277C341.076 108.127 336.928 110.349 332.783 109.509L250.193 93.4656H250.144L260.265 74.262C261.696 71.5965 260.708 68.3384 258.092 66.8573L254.933 65.08C253.895 64.4876 252.76 64.1421 251.675 63.9941L251.525 56.4905C252.366 56.4905 253.253 56.3917 254.142 56.1448L289.438 46.8641L347.591 34.9669C348.233 34.8189 348.875 34.7694 349.517 34.7694C353.665 34.7694 357.416 37.4351 358.7 41.4832C360.378 46.8148 357.169 52.4424 351.739 53.7258L273.197 73.6698L336.83 91.9845C340.878 93.0707 343.495 96.773 343.495 100.722C343.495 101.907 343.247 103.092 342.755 104.277Z" fill="#FFCC99"/>
<path d="M255.625 19.0709H267.076C271.322 19.0709 275.123 21.7367 276.556 25.7352L284.588 48.1395L289.439 46.8639L276.556 10.9256C275.123 6.92681 271.322 4.26111 267.076 4.26111L255.625 4.26111L205.221 20.4038L167.159 20.4038V35.2134H205.221L255.625 19.0709Z" fill="white"/>
<path d="M205.221 92.3286L229.311 105.164C235.581 108.521 243.431 106.151 246.787 99.8323L250.144 93.4642L260.265 74.2606C261.696 71.5951 260.709 68.337 258.092 66.8559L254.934 65.0786C253.895 64.4862 252.761 64.1407 251.675 63.9927L251.526 56.4891C252.366 56.4891 253.253 56.3903 254.142 56.1434L284.588 48.1383L276.556 25.734C275.123 21.7355 271.322 19.0698 267.076 19.0698H255.625L205.221 35.2122H167.159V79.6418H190.411L205.221 92.3286Z" fill="#FFCC99"/>
<path d="M273.196 73.6698L351.739 53.7258C357.168 52.4424 360.378 46.8148 358.7 41.4832C357.416 37.4351 353.665 34.7694 349.517 34.7694C348.875 34.7694 348.233 34.8189 347.591 34.9669L289.438 46.8641" stroke="#231F20" stroke-width="6.26389" stroke-miterlimit="10"/>
<path d="M250.192 93.4645L332.783 109.508C336.928 110.348 341.076 108.126 342.754 104.276C343.247 103.091 343.494 101.906 343.494 100.721C343.494 96.7719 340.878 93.0696 336.83 91.9835L273.196 73.6688" stroke="#231F20" stroke-width="6.26389" stroke-miterlimit="10"/>
<path d="M232.028 82.2591L237.754 74.7555L243.382 67.4493C245.356 64.8331 248.564 63.599 251.675 63.9939C252.761 64.1419 253.895 64.4874 254.934 65.0798L258.092 66.8571C260.709 68.3382 261.696 71.5963 260.265 74.2618L250.144 93.4654L246.787 99.8334C243.431 106.152 235.581 108.522 229.311 105.165L205.221 92.3298L190.411 79.6429H167.159V20.4038L205.221 20.4038L255.625 4.26111L267.076 4.26111C271.322 4.26111 275.123 6.92681 276.556 10.9256L289.439 46.8639L254.142 56.1446C253.253 56.3915 252.366 56.4903 251.526 56.4903C246.64 56.4903 242.245 53.0346 241.358 47.9992L238.839 34.0783C237.95 29.1911 240.765 24.4024 245.405 22.8228L258.783 18.1328" stroke="#231F20" stroke-width="6.26389" stroke-miterlimit="10"/>
<path d="M237.754 74.7551L212.873 53.4293" stroke="#231F20" stroke-width="6.26389" stroke-miterlimit="10"/>
<rect x="168.211" y="8.19293" width="78.59" height="33.9218" rx="8.89991" transform="rotate(90 168.211 8.19293)" fill="white" stroke="#231F20" stroke-width="4.44995"/>
<rect x="165.986" y="17.7849" width="66.7721" height="29.4718" rx="5.56244" transform="rotate(90 165.986 17.7849)" fill="#FFB800"/>
<path d="M-184 12L136 12" stroke="#231F20" stroke-width="4.13"/>
<path d="M-184 76L136 76" stroke="#231F20" stroke-width="4.13"/>
</svg>
