<svg width="298" height="130" viewBox="0 0 298 130" fill="none" xmlns="http://www.w3.org/2000/svg">
<path d="M161 35L481 35" stroke="#231F20" stroke-width="4.13"/>
<path d="M161 99L481 99" stroke="#231F20" stroke-width="4.13"/>
<path d="M189.536 92.5817H168.992C166.876 92.5817 164.995 91.6617 163.679 90.2238V95.7366C163.679 99.6903 166.897 102.91 170.893 102.91H191.436C195.43 102.91 198.65 99.6903 198.65 95.7366V33.2504C198.65 31.3916 197.92 29.7106 196.752 28.4345V85.4073C196.752 89.3616 193.531 92.5817 189.536 92.5817Z" fill="white"/>
<path d="M25.149 19.9459C24.3241 19.7371 23.5763 19.3918 22.9075 18.9541C22.6164 19.3613 22.2849 19.7356 22.0768 20.207C21.6682 21.1854 21.4639 22.1637 21.4639 23.1418C21.4639 26.4027 23.6649 29.419 27.0494 30.275L40.6468 33.6259L79.5659 33.3562L25.149 19.9459" fill="#FFCC99"/>
<path d="M74.4291 7.47303C74.1342 7.29513 73.9145 7.05749 73.6524 6.85204C72.8815 8.11233 72.4555 9.52238 72.4555 10.9542C72.4555 12.1461 72.7581 13.3245 73.2824 14.4161L91.916 18.0706L74.4291 7.47303" fill="#FFCC99"/>
<path d="M23.6006 77.378C23.3963 77.378 23.192 77.4187 23.0301 77.4187C21.5114 77.4187 20.1198 76.8966 18.9325 76.083C17.7414 77.7779 17.2423 79.9493 17.7954 82.1224C18.6107 85.4241 21.5461 87.7476 24.9286 87.7476C25.0924 87.7476 25.2948 87.7067 25.4991 87.7067L52.7172 85.7339L84.3335 72.9757L23.6006 77.378Z" fill="#FFCC99"/>
<path d="M8.68123 49.7417C6.96782 49.6593 5.41629 49.0255 4.15773 48.0384C3.4369 49.2354 2.99938 50.6237 2.99938 52.1224C2.99938 56.4023 6.34142 59.8671 10.5816 60.0708L31.6168 61.0231L78.9121 52.9215L8.68123 49.7417" fill="#FFCC99"/>
<path d="M130.353 78.6413L52.255 101.385C51.563 101.59 50.9097 101.671 50.2177 101.671C48.8551 101.671 47.5329 101.271 46.3958 100.555C44.8443 102.651 44.4588 105.504 45.7174 108.046C46.9393 110.533 49.4661 112 52.1162 112C52.81 112 53.4615 111.918 54.1553 111.715L132.252 88.97H163.679V40.0572H161.779V78.6413H130.353Z" fill="white"/>
<path d="M132.252 29.5413L84.1951 3.94354C81.5449 2.51691 78.2858 2.72064 75.84 4.47337C74.8936 5.13214 74.1979 5.95994 73.6524 6.85211C73.9145 7.05757 74.1343 7.29521 74.4292 7.4731L91.916 18.0707L73.2824 14.4162C73.9242 15.7511 74.9149 16.9499 76.3276 17.8022L93.8145 28.3999L30.2272 15.9271C27.3535 15.3731 24.5569 16.6515 22.9071 18.954C23.5759 19.3917 24.3237 19.737 25.1486 19.9458L79.5656 33.3561L40.6465 33.6258L81.464 43.6852L10.8669 44.1744C8.0048 44.2013 5.53393 45.7521 4.1578 48.0385C5.41637 49.0257 6.96789 49.6594 8.68131 49.7419L78.9122 52.9217L31.6168 61.0233L80.8125 63.2504L23.707 73.0328C21.6832 73.383 20.0219 74.5354 18.9329 76.0831C20.1201 76.8966 21.5117 77.4187 23.0305 77.4187C23.1924 77.4187 23.3967 77.3781 23.601 77.3781L84.3338 72.9758L52.7175 85.7339L86.2323 83.3047L49.4661 98.1415C48.1786 98.6649 47.1571 99.5263 46.3958 100.555C47.5329 101.271 48.8551 101.671 50.2177 101.671C50.9096 101.671 51.563 101.59 52.2549 101.386L130.353 78.6416H161.779V40.0575H144.481L132.252 29.5413Z" fill="#FFCC99"/>
<path d="M80.8122 63.2503L23.7066 73.0328C19.4664 73.7665 16.7354 77.9649 17.7954 82.1224C18.6107 85.4241 21.5461 87.7476 24.9286 87.7476C25.0924 87.7476 25.2948 87.7067 25.4991 87.7067L86.2319 83.3046" stroke="#231F20" stroke-width="5.17202" stroke-miterlimit="10"/>
<path d="M81.4644 43.6847L10.8673 44.1739C6.50567 44.2146 2.99981 47.7607 2.99981 52.1221C2.99981 56.402 6.34185 59.8668 10.582 60.0705L80.8129 63.2499" stroke="#231F20" stroke-width="5.17202" stroke-miterlimit="10"/>
<path d="M93.8145 28.3997L30.2271 15.9268C26.8446 15.2748 23.4621 17.0682 22.0764 20.2067C21.6678 21.185 21.4635 22.1633 21.4635 23.1414C21.4635 26.4023 23.6645 29.4187 27.049 30.2746L81.464 43.6849" stroke="#231F20" stroke-width="5.17202" stroke-miterlimit="10"/>
<path d="M86.2323 83.3044L49.4661 98.1412C45.5535 99.7308 43.842 104.255 45.7174 108.046C46.9393 110.533 49.4661 112 52.1162 112C52.81 112 53.4615 111.918 54.1553 111.715L132.252 88.97H163.679V40.0572H144.481L132.252 29.541L84.1951 3.94323C81.545 2.5166 78.2858 2.72033 75.84 4.47307C73.5561 6.06275 72.4556 8.50836 72.4556 10.954C72.4556 13.6035 73.7604 16.2529 76.3276 17.8019L93.8145 28.3996L95.9346 47.6793L116.885 58.5625" stroke="#231F20" stroke-width="5.17202" stroke-miterlimit="10"/>
<rect x="162.696" y="106.439" width="78.59" height="33.9218" rx="8.89991" transform="rotate(-90 162.696 106.439)" fill="white" stroke="#231F20" stroke-width="4.44995"/>
<rect x="164.92" y="96.8466" width="66.7721" height="29.4718" rx="5.56244" transform="rotate(-90 164.92 96.8466)" fill="#FFB800"/>
</svg>
