<svg width="297" height="107" viewBox="0 0 297 107" fill="none" xmlns="http://www.w3.org/2000/svg">
<path d="M160 9L480 8.99997" stroke="#231F20" stroke-width="4.13"/>
<path d="M160 73L480 73" stroke="#231F20" stroke-width="4.13"/>
<path d="M21.2609 32.7619L3.60627 70.0345C3.47241 70.3171 3.43339 70.6201 3.32369 70.9064C2.09479 67.7942 2.13567 64.2934 3.60627 61.196L21.2609 23.9216C23.8173 18.5355 29.2424 15.1147 35.1805 15.1147L127.304 15.1147V23.9531L35.1805 23.9531C29.2424 23.9531 23.8173 27.374 21.2609 32.7619Z" fill="white"/>
<path d="M103.083 74.2493C102.336 78.2205 99.7011 81.6413 96.0051 83.3722L53.7778 103.109C51.1824 104.329 48.1947 104.29 45.6384 103.031L34.4722 97.4089C30.7762 95.5609 28.4169 91.8258 28.4169 87.6966V86.4789L22.5586 88.4831C18.7845 89.7808 14.5772 88.3659 12.3741 85.0232L4.47264 73.2267C3.98182 72.4961 3.63789 71.7059 3.32369 70.9065C3.43339 70.6202 3.47241 70.3171 3.60627 70.0345L21.2609 32.7619C23.8173 27.3741 29.2424 23.9532 35.1805 23.9532L127.304 23.9532V70.5923V70.6722H103.752L103.083 74.2493Z" fill="#FFCC99"/>
<path d="M154.08 14.6742L134.224 14.6742C130.409 14.6742 127.304 17.7808 127.304 21.594V15.1148V12.7555C127.304 8.94232 130.409 5.83566 134.224 5.83566L154.08 5.83566C157.893 5.83566 161 8.94232 161 12.7555V21.594C161 17.7808 157.893 14.6742 154.08 14.6742Z" fill="white"/>
<path d="M127.304 70.5922V15.1147L35.1806 15.1147C29.2424 15.1147 23.8173 18.5355 21.2609 23.9216L3.60629 61.196C1.75827 65.0891 2.07246 69.6497 4.47265 73.2267L12.3741 85.0231C14.5772 88.3659 18.7845 89.7807 22.5587 88.483L28.4169 86.4788L51.2605 78.6536L63.2131 74.5653C67.4204 73.1096 70.2519 69.1384 70.2519 64.695V44.8391C70.2519 41.8123 67.7755 39.3341 64.7079 39.3341H63.9214C56.8845 39.3341 51.1824 45.0361 51.1824 52.0749V54.7875" stroke="#231F20" stroke-width="4.13027" stroke-miterlimit="10"/>
<path d="M28.4169 86.438V87.6967C28.4169 91.8259 30.7762 95.561 34.4722 97.409L45.6384 103.031C48.1947 104.29 51.1824 104.329 53.7778 103.109L96.0051 83.3722C99.7011 81.6414 102.336 78.2205 103.083 74.2493L103.752 70.6723H127.304" stroke="#231F20" stroke-width="4.13027" stroke-miterlimit="10"/>
<path d="M51.2605 78.6537V87.9719" stroke="#231F20" stroke-width="4.13027" stroke-miterlimit="10"/>
<path d="M68.7981 41.0651L75.757 48.26C79.0589 51.6809 83.5804 53.607 88.2989 53.607H97.3828" stroke="#231F20" stroke-width="4.13027" stroke-miterlimit="10"/>
<rect x="-1.83568" y="-1.83568" width="77.5573" height="33.0422" rx="7.3427" transform="matrix(0 1 1 0 128.16 4)" fill="white" stroke="#231F20" stroke-width="3.67135"/>
<rect width="66.5432" height="29.3708" rx="4.58919" transform="matrix(0 1 1 0 128.16 11.3427)" fill="#FFB800"/>
</svg>
