<svg width="366" height="129" viewBox="0 0 366 129" fill="none" xmlns="http://www.w3.org/2000/svg">
<path d="M229 34L549 34" stroke="#231F20" stroke-width="4.13"/>
<path d="M229 98L549 98" stroke="#231F20" stroke-width="4.13"/>
<path d="M20.3923 9.40895C22.0706 5.55838 26.2186 3.33688 30.3642 4.17628L112.954 20.22H113.003L102.882 39.4236C101.451 42.0891 102.439 45.3472 105.055 46.8283L108.214 48.6056C109.252 49.198 110.387 49.5435 111.472 49.6915L111.622 57.1951C110.781 57.1951 109.894 57.2939 109.005 57.5408L73.7088 66.8215L15.5557 78.7187C14.9138 78.8667 14.2719 78.9162 13.63 78.9162C9.48203 78.9162 5.73094 76.2505 4.4471 72.2024C2.76878 66.8708 5.97835 61.2432 11.4078 59.9598L89.9504 40.0158L26.3166 21.7011C22.269 20.615 19.6523 16.9126 19.6523 12.9633C19.6523 11.7784 19.8998 10.5938 20.3923 9.40895" fill="#FFCC99"/>
<path d="M107.522 94.6147H96.07C91.824 94.6147 88.0239 91.949 86.5907 87.9504L78.5585 65.5461L73.708 66.8217L86.5907 102.76C88.0239 106.759 91.824 109.424 96.07 109.424H107.522L157.925 93.2818H195.987V78.4722H157.925L107.522 94.6147" fill="white"/>
<path d="M157.925 21.357L133.836 8.52171C127.566 5.16507 119.716 7.53456 116.359 13.8534L113.003 20.2214L102.881 39.425C101.45 42.0905 102.438 45.3486 105.055 46.8297L108.213 48.607C109.251 49.1994 110.386 49.5449 111.471 49.6929L111.621 57.1965C110.78 57.1965 109.893 57.2953 109.004 57.5422L78.5585 65.5473L86.5907 87.9516C88.0239 91.9501 91.824 94.6158 96.07 94.6158H107.522L157.925 78.4734H195.987V34.0439H172.736L157.925 21.357" fill="#FFCC99"/>
<path d="M89.9502 40.0158L11.4075 59.9598C5.9781 61.2432 2.76853 66.8708 4.44685 72.2024C5.73069 76.2505 9.48178 78.9162 13.6297 78.9162C14.2716 78.9162 14.9136 78.8667 15.5555 78.7187L73.7085 66.8215" stroke="#231F20" stroke-width="6.26389" stroke-miterlimit="10"/>
<path d="M112.954 20.2211L30.3639 4.17733C26.2183 3.33794 22.0703 5.55943 20.392 9.41C19.8995 10.5949 19.652 11.7795 19.652 12.9644C19.652 16.9137 22.2687 20.616 26.3163 21.7021L89.9501 40.0168" stroke="#231F20" stroke-width="6.26389" stroke-miterlimit="10"/>
<path d="M131.119 31.4265L125.393 38.9301L119.765 46.2363C117.79 48.8525 114.583 50.0866 111.471 49.6917C110.386 49.5437 109.251 49.1982 108.213 48.6058L105.055 46.8285C102.438 45.3474 101.45 42.0893 102.881 39.4238L113.003 20.2202L116.359 13.8522C119.716 7.53338 127.566 5.16389 133.836 8.52053L157.925 21.3558L172.736 34.0427H195.987V93.2818H157.925L107.522 109.424H96.07C91.824 109.424 88.0239 106.759 86.5907 102.76L73.708 66.8218L109.004 57.541C109.893 57.2941 110.78 57.1953 111.621 57.1953C116.506 57.1953 120.902 60.651 121.789 65.6864L124.307 79.6073C125.197 84.4946 122.382 89.2832 117.741 90.8628L104.364 95.5528" stroke="#231F20" stroke-width="6.26389" stroke-miterlimit="10"/>
<path d="M125.393 38.9305L150.273 60.2563" stroke="#231F20" stroke-width="6.26389" stroke-miterlimit="10"/>
<rect x="194.935" y="105.493" width="78.59" height="33.9218" rx="8.89991" transform="rotate(-90 194.935 105.493)" fill="white" stroke="#231F20" stroke-width="4.44995"/>
<rect x="197.16" y="95.9008" width="66.7721" height="29.4718" rx="5.56244" transform="rotate(-90 197.16 95.9008)" fill="#FFB800"/>
</svg>
