<svg width="24" height="24" viewBox="0 0 24 24" fill="none" xmlns="http://www.w3.org/2000/svg">
<path d="M4.5 4.5H21.5V21.5H4.5V4.5Z" fill="#231F20"/>
<path fill-rule="evenodd" clip-rule="evenodd" d="M4 4.5C4 4.22386 4.22386 4 4.5 4H21.5C21.7761 4 22 4.22386 22 4.5V21.5C22 21.7761 21.7761 22 21.5 22H4.5C4.22386 22 4 21.7761 4 21.5V4.5ZM5 5V21H21V5H5Z" fill="#231F20"/>
<path d="M2.5 2.5H19.5V19.5H2.5V2.5Z" fill="#FFB800"/>
<path fill-rule="evenodd" clip-rule="evenodd" d="M2 2.5C2 2.22386 2.22386 2 2.5 2H19.5C19.7761 2 20 2.22386 20 2.5V19.5C20 19.7761 19.7761 20 19.5 20H2.5C2.22386 20 2 19.7761 2 19.5V2.5ZM3 3V19H19V3H3Z" fill="#231F20"/>
<path fill-rule="evenodd" clip-rule="evenodd" d="M10 5L10 7L12 7L12 5L10 5Z" fill="#231F20"/>
<path fill-rule="evenodd" clip-rule="evenodd" d="M10 9L10 17L12 17L12 9L10 9Z" fill="#231F20"/>
</svg>
