<svg width="269" height="107" viewBox="0 0 269 107" fill="none" xmlns="http://www.w3.org/2000/svg">
<path d="M247.739 32.7619L265.394 70.0345C265.528 70.3171 265.567 70.6201 265.676 70.9064C266.905 67.7942 266.864 64.2933 265.394 61.196L247.739 23.9215C245.183 18.5355 239.758 15.1146 233.819 15.1146L141.696 15.1146V23.9531L233.819 23.9531C239.758 23.9531 245.183 27.374 247.739 32.7619Z" fill="white"/>
<path d="M165.917 74.2492C166.664 78.2204 169.299 81.6413 172.995 83.3721L215.222 103.109C217.818 104.329 220.805 104.29 223.362 103.031L234.528 97.4089C238.224 95.5608 240.583 91.8258 240.583 87.6966V86.4788L246.441 88.483C250.215 89.7807 254.423 88.3659 256.626 85.0231L264.527 73.2267C265.018 72.496 265.362 71.7059 265.676 70.9064C265.567 70.6201 265.528 70.3171 265.394 70.0345L247.739 32.7619C245.183 27.374 239.758 23.9531 233.819 23.9531L141.696 23.9531V70.5922V70.6722H165.248L165.917 74.2492" fill="#FFCC99"/>
<path d="M114.92 14.6742L134.776 14.6742C138.591 14.6742 141.696 17.7808 141.696 21.594V15.1148V12.7555C141.696 8.94235 138.591 5.83569 134.776 5.83569L114.92 5.83569C111.107 5.83569 108 8.94235 108 12.7555V21.594C108 17.7808 111.107 14.6742 114.92 14.6742Z" fill="white"/>
<path d="M141.696 70.5922V15.1146L233.819 15.1146C239.758 15.1146 245.183 18.5355 247.739 23.9215L265.394 61.196C267.242 65.0891 266.928 69.6496 264.527 73.2267L256.626 85.0231C254.423 88.3659 250.215 89.7807 246.441 88.483L240.583 86.4788L217.739 78.6536L205.787 74.5653C201.58 73.1095 198.748 69.1384 198.748 64.6949V44.839C198.748 41.8123 201.225 39.334 204.292 39.334H205.079C212.116 39.334 217.818 45.0361 217.818 52.0749V54.7874" stroke="#231F20" stroke-width="4.13027" stroke-miterlimit="10"/>
<path d="M240.583 86.438V87.6966C240.583 91.8258 238.224 95.5609 234.528 97.4089L223.362 103.031C220.805 104.29 217.818 104.329 215.222 103.109L172.995 83.3722C169.299 81.6413 166.664 78.2205 165.917 74.2493L165.248 70.6722H141.696" stroke="#231F20" stroke-width="4.13027" stroke-miterlimit="10"/>
<path d="M217.74 78.6537V87.9719" stroke="#231F20" stroke-width="4.13027" stroke-miterlimit="10"/>
<path d="M200.202 41.0651L193.243 48.26C189.941 51.6809 185.42 53.607 180.701 53.607H171.617" stroke="#231F20" stroke-width="4.13027" stroke-miterlimit="10"/>
<rect x="142.676" y="2.16432" width="77.5573" height="33.0422" rx="7.3427" transform="rotate(90 142.676 2.16432)" fill="white" stroke="#231F20" stroke-width="3.67135"/>
<rect x="140.841" y="11.3427" width="66.5432" height="29.3708" rx="4.58919" transform="rotate(90 140.841 11.3427)" fill="#FFB800"/>
<path d="M0 10L108 9.99999" stroke="#231F20" stroke-width="4.13"/>
<path d="M0.5 73.9841L108.5 73.9841" stroke="#231F20" stroke-width="4.13"/>
</svg>
