<svg width="60" height="103" viewBox="0 0 60 103" fill="none" xmlns="http://www.w3.org/2000/svg">
<path d="M11.9764 97.434V86.8795C11.9764 85.7922 12.449 84.8258 13.1878 84.1495H10.3555C8.32425 84.1495 6.66992 85.8031 6.66992 87.8558V98.4104C6.66992 100.462 8.32425 102.117 10.3555 102.117H42.4585C43.4135 102.117 44.2772 101.741 44.9328 101.141H15.6623C13.6307 101.141 11.9764 99.4867 11.9764 97.434Z" fill="white"/>
<path d="M49.2941 12.9782C49.4014 12.5544 49.5788 12.1702 49.8037 11.8266C49.5944 11.6771 49.4021 11.5068 49.1599 11.3998C48.6573 11.1899 48.1547 11.0849 47.6522 11.0849C45.9768 11.0849 44.4272 12.2158 43.9874 13.9545L42.2659 20.9404L42.4044 40.9355L49.2941 12.9782Z" fill="#FFCC99"/>
<path d="M55.702 38.2965C55.7934 38.145 55.9155 38.0321 56.021 37.8975C55.3736 37.5014 54.6491 37.2825 53.9135 37.2825C53.3012 37.2825 52.6958 37.438 52.1349 37.7073L50.2574 47.2806L55.702 38.2965Z" fill="#FFCC99"/>
<path d="M19.7876 12.1828C19.7876 12.0779 19.7667 11.9729 19.7667 11.8897C19.7667 11.1095 20.035 10.3945 20.4529 9.78456C19.5822 9.17262 18.4666 8.91616 17.3501 9.20035C15.6538 9.6192 14.4601 11.1273 14.4601 12.8651C14.4601 12.9493 14.4811 13.0532 14.4811 13.1582L15.4947 27.1418L22.0493 43.385L19.7876 12.1828Z" fill="#FFCC99"/>
<path d="M33.9859 4.51783C34.0283 3.63754 34.3539 2.84042 34.8611 2.19382C34.2461 1.82349 33.5328 1.59871 32.7628 1.59871C30.564 1.59871 28.7839 3.31572 28.6793 5.49416L28.19 16.3012L32.3523 40.5997L33.9859 4.51783Z" fill="#FFCC99"/>
<path d="M19.1384 67.0282L7.45333 26.9043C7.34847 26.5488 7.30678 26.2131 7.30678 25.8576C7.30678 25.1576 7.51235 24.4783 7.87991 23.8941C6.80307 23.097 5.33747 22.8989 4.0314 23.5455C2.75394 24.1733 2 25.4715 2 26.833C2 27.1895 2.04189 27.5241 2.14665 27.8806L13.8319 68.0035V84.1498H38.9614V83.1734H19.1384V67.0282Z" fill="white"/>
<path d="M44.3642 68.0034L57.5154 43.3138C58.2483 41.9523 58.1437 40.2778 57.2432 39.0213C56.9047 38.5351 56.4794 38.1776 56.0211 37.8974C55.9155 38.0321 55.7934 38.1449 55.702 38.2964L50.2574 47.2805L52.1349 37.7073C51.4491 38.037 50.8332 38.546 50.3953 39.2718L44.9506 48.2559L51.3587 15.5872C51.6433 14.1108 50.9865 12.674 49.8036 11.8264C49.5787 12.17 49.4013 12.5542 49.294 12.978L42.4043 40.9353L42.2658 20.9402L37.0976 41.9107L36.8463 5.64061C36.8325 4.17016 36.0357 2.90073 34.8611 2.19373C34.3539 2.84032 34.0283 3.63744 33.9859 4.51773L32.3523 40.5996L28.19 16.3011L27.0458 41.576L22.02 12.2373C21.84 11.1976 21.248 10.3441 20.4529 9.7846C20.0349 10.3946 19.7667 11.1095 19.7667 11.8898C19.7667 11.9729 19.7875 12.0779 19.7875 12.1829L22.0493 43.3851L15.4946 27.1418L16.7427 44.3604L9.12012 25.4714C8.85118 24.8099 8.40866 24.2851 7.87989 23.894C7.51233 24.4782 7.30676 25.1575 7.30676 25.8575C7.30676 26.213 7.34845 26.5487 7.45331 26.9042L19.1384 67.0281V83.1733H38.9614V74.2863L44.3642 68.0034Z" fill="#FFCC99"/>
<path d="M27.0459 41.576L22.02 12.2373C21.6431 10.0589 19.4861 8.65576 17.3501 9.20037C15.6538 9.61923 14.4601 11.1273 14.4601 12.8651C14.4601 12.9493 14.4811 13.0532 14.4811 13.1582L16.7428 44.3604" stroke="#231F20" stroke-width="2.65718" stroke-miterlimit="10"/>
<path d="M37.0977 41.9109L36.8464 5.64085C36.8255 3.40002 35.0036 1.59885 32.7629 1.59885C30.5641 1.59885 28.784 3.31586 28.6793 5.4943L27.0459 41.5762" stroke="#231F20" stroke-width="2.65718" stroke-miterlimit="10"/>
<path d="M44.9506 48.256L51.3587 15.5873C51.6937 13.8495 50.7723 12.1117 49.1599 11.3997C48.6573 11.1898 48.1546 11.0848 47.6521 11.0848C45.9768 11.0848 44.4271 12.2156 43.9874 13.9544L37.0977 41.9108" stroke="#231F20" stroke-width="2.65718" stroke-miterlimit="10"/>
<path d="M16.7427 44.3605L9.12014 25.4715C8.30342 23.4613 5.97892 22.582 4.0314 23.5455C2.75394 24.1733 2 25.4715 2 26.833C2 27.1895 2.04189 27.5241 2.14665 27.8806L13.8319 68.0035V84.1498H38.9614V74.2864L44.3643 68.0035L57.5154 43.3139C58.2484 41.9524 58.1437 40.2779 57.2432 39.0214C56.4265 37.848 55.17 37.2826 53.9135 37.2826C52.5523 37.2826 51.1912 37.9529 50.3954 39.2719L44.9506 48.256L35.0455 49.3452L29.4541 60.1087" stroke="#231F20" stroke-width="2.65718" stroke-miterlimit="10"/>
<rect x="4.85689" y="83.6444" width="40.3765" height="17.4277" rx="4.57243" fill="white" stroke="#231F20" stroke-width="2.28621"/>
<rect x="9.7854" y="84.7873" width="34.3049" height="15.1415" rx="2.85777" fill="#FFB800"/>
</svg>
