<svg width="269" height="107" viewBox="0 0 269 107" fill="none" xmlns="http://www.w3.org/2000/svg">
<path d="M160 9L268 8.99999" stroke="#231F20" stroke-width="4.13"/>
<path d="M160.5 72.9841L268.5 72.9841" stroke="#231F20" stroke-width="4.13"/>
<path d="M21.2609 32.762L3.60627 70.0346C3.47241 70.3172 3.43339 70.6202 3.32369 70.9065C2.09478 67.7943 2.13567 64.2935 3.60627 61.1961L21.2609 23.9216C23.8173 18.5356 29.2424 15.1147 35.1805 15.1147L127.304 15.1147V23.9532L35.1805 23.9532C29.2424 23.9532 23.8173 27.3741 21.2609 32.762Z" fill="white"/>
<path d="M103.083 74.2492C102.336 78.2204 99.7011 81.6413 96.0051 83.3721L53.7778 103.109C51.1824 104.329 48.1947 104.29 45.6384 103.031L34.4722 97.4089C30.7762 95.5608 28.4169 91.8258 28.4169 87.6966V86.4788L22.5586 88.483C18.7845 89.7807 14.5772 88.3659 12.3741 85.0231L4.47264 73.2267C3.98182 72.496 3.63789 71.7059 3.32369 70.9064C3.43339 70.6201 3.47241 70.3171 3.60627 70.0345L21.2609 32.7619C23.8173 27.374 29.2424 23.9531 35.1805 23.9531L127.304 23.9531V70.5922V70.6722H103.752L103.083 74.2492" fill="#FFCC99"/>
<path d="M154.08 14.6742L134.224 14.6742C130.409 14.6742 127.304 17.7808 127.304 21.594V15.1148V12.7555C127.304 8.94235 130.409 5.83569 134.224 5.83569L154.08 5.83569C157.893 5.83569 161 8.94235 161 12.7555V21.594C161 17.7808 157.893 14.6742 154.08 14.6742Z" fill="white"/>
<path d="M127.304 70.5923V15.1147L35.1806 15.1147C29.2424 15.1147 23.8173 18.5356 21.2609 23.9216L3.60629 61.1961C1.75827 65.0892 2.07246 69.6498 4.47265 73.2268L12.3741 85.0232C14.5772 88.366 18.7845 89.7808 22.5587 88.4831L28.4169 86.4789L51.2605 78.6537L63.2131 74.5654C67.4204 73.1097 70.2519 69.1385 70.2519 64.6951V44.8391C70.2519 41.8124 67.7755 39.3342 64.7079 39.3342H63.9214C56.8845 39.3342 51.1824 45.0362 51.1824 52.075V54.7875" stroke="#231F20" stroke-width="4.13027" stroke-miterlimit="10"/>
<path d="M28.4169 86.4381V87.6968C28.4169 91.826 30.7762 95.561 34.4722 97.4091L45.6384 103.031C48.1947 104.29 51.1824 104.329 53.7778 103.109L96.0051 83.3723C99.7011 81.6415 102.336 78.2206 103.083 74.2494L103.752 70.6724H127.304" stroke="#231F20" stroke-width="4.13027" stroke-miterlimit="10"/>
<path d="M51.2605 78.6538V87.972" stroke="#231F20" stroke-width="4.13027" stroke-miterlimit="10"/>
<path d="M68.798 41.0649L75.7569 48.2599C79.0588 51.6808 83.5803 53.6069 88.2988 53.6069H97.3827" stroke="#231F20" stroke-width="4.13027" stroke-miterlimit="10"/>
<rect x="-1.83568" y="-1.83568" width="77.5573" height="33.0422" rx="7.3427" transform="matrix(0 1 1 0 128.159 4)" fill="white" stroke="#231F20" stroke-width="3.67135"/>
<rect width="66.5432" height="29.3708" rx="4.58919" transform="matrix(0 1 1 0 128.159 11.3428)" fill="#FFB800"/>
</svg>
