<svg width="61" height="78" viewBox="0 0 61 78" fill="none" xmlns="http://www.w3.org/2000/svg">
<path d="M17.0062 13.2258L39.6881 2.23994C39.9219 2.12684 40.1625 2.0358 40.4031 1.95049C38.6625 1.32558 36.713 1.41471 35.0003 2.23994L12.3185 13.2258C10.1293 14.3002 8.73096 16.5305 8.73096 18.9621V59.3811H13.4187V18.9621C13.4187 16.5305 14.8171 14.3002 17.0062 13.2258Z" fill="white"/>
<path d="M59 30.8201V25.0637C59 23.2196 58.007 21.4963 56.4256 20.5436L50.5474 17.0567V11.4622C50.5474 9.59803 49.6349 7.87474 48.0746 6.84152L41.9127 2.70579C41.4373 2.38663 40.9293 2.13934 40.4031 1.95052C40.1625 2.03582 39.922 2.12687 39.6881 2.23997L17.0063 13.2258C14.8172 14.3002 13.4188 16.5305 13.4188 18.9621V59.3811H37.3313H37.3725V47.2394H42.0603H42.0746L56.3451 36.2124C58.0071 34.9146 59 32.9287 59 30.8201Z" fill="#FFCC99"/>
<path d="M8.6351 73.1847V62.9484C8.6351 60.9817 10.2357 59.3811 12.2025 59.3811H8.73095H7.51465C5.5479 59.3811 3.94635 60.9817 3.94635 62.9484V73.1847C3.94635 75.1505 5.5479 76.7521 7.51465 76.7521H12.2025C10.2357 76.7521 8.6351 75.1505 8.6351 73.1847Z" fill="white"/>
<path d="M37.3312 59.3811H8.73096V18.9621C8.73096 16.5305 10.1293 14.3002 12.3185 13.2258L35.0003 2.23998C37.2297 1.16555 39.8654 1.32755 41.9127 2.7058L48.0745 6.84153C49.6349 7.87475 50.5474 9.59805 50.5474 11.4622V17.0567V25.449C50.5474 27.6783 49.3109 29.7055 47.3241 30.6984L34.0073 37.4689C32.1422 38.4216 29.9329 38.3402 28.1492 37.2868L19.8385 32.3402C18.1765 31.3674 17.1625 29.5837 17.1625 27.6582C17.1625 26.2799 17.7308 25.0435 18.6222 24.1311C19.5145 23.2397 20.771 22.6924 22.1292 22.6924H25.778" stroke="#231F20" stroke-width="2.57199" stroke-miterlimit="10"/>
<path d="M23.1826 47.2396H42.0746L56.3451 36.2126C58.007 34.9148 59 32.9289 59 30.8203V25.0638C59 23.2198 58.007 21.4965 56.4256 20.5438L50.5474 17.0569" stroke="#231F20" stroke-width="2.57199" stroke-miterlimit="10"/>
<path d="M37.3724 59.3811V47.2394" stroke="#231F20" stroke-width="2.57199" stroke-miterlimit="10"/>
<path d="M25.778 17.057V28.1042" stroke="#231F20" stroke-width="2.57199" stroke-miterlimit="10"/>
<rect x="1.85689" y="58.5949" width="40.3765" height="17.4277" rx="4.57243" fill="white" stroke="#231F20" stroke-width="2.28621"/>
<rect x="6.7854" y="59.7379" width="34.3049" height="15.1415" rx="2.85777" fill="#FFB800"/>
</svg>
