<svg width="58" height="123" viewBox="0 0 58 123" fill="none" xmlns="http://www.w3.org/2000/svg">
<path d="M53.221 10.8725C55.1992 11.7348 56.3405 13.8658 55.9093 15.9957L47.6666 58.4274V58.4525L37.8006 53.2526C36.4312 52.5175 34.7573 53.0248 33.9963 54.3691L33.0832 55.9917C32.7789 56.5253 32.6014 57.1082 32.5253 57.6658L28.6703 57.7426C28.6703 57.3108 28.6195 56.8551 28.4926 56.3982L23.7246 38.2645L17.6123 8.38767C17.5362 8.05788 17.5108 7.72809 17.5108 7.3983C17.5108 5.26724 18.8803 3.34007 20.9601 2.68049C23.6993 1.81823 26.5905 3.46719 27.2499 6.25663L37.4963 46.6088L46.9057 13.9162C47.4637 11.8367 49.3659 10.4923 51.3949 10.4923C52.0036 10.4923 52.6122 10.6195 53.221 10.8725Z" fill="#FFCC99"/>
<path d="M9.44558 55.6363V49.7528C9.44558 47.5714 10.8151 45.6191 12.8694 44.8827L24.3799 40.7561L23.7245 38.2641L5.26081 44.8827C3.20639 45.6191 1.83685 47.5714 1.83685 49.7528V55.6363L10.1303 81.5316V101.087H17.7389V81.5316L9.44558 55.6363Z" fill="white"/>
<path d="M47.0831 81.5316L53.6773 69.1554C55.4019 65.9343 54.1845 61.9012 50.9381 60.1767L47.6665 58.4522L37.8004 53.2523C36.431 52.5171 34.7571 53.0244 33.9962 54.3687L33.0831 55.9913C32.7787 56.525 32.6012 57.1078 32.5252 57.6655L28.6701 57.7422C28.6701 57.3105 28.6194 56.8548 28.4925 56.3979L24.3798 40.7561L12.8693 44.8827C10.815 45.6191 9.4455 47.5714 9.4455 49.7528V55.6363L17.7389 81.5316V101.087H40.565V89.1408L47.0831 81.5316Z" fill="#FFCC99"/>
<path d="M37.4963 46.6087L27.2498 6.2565C26.5905 3.46706 23.6992 1.8181 20.96 2.68036C18.8803 3.33995 17.5107 5.26711 17.5107 7.39817C17.5107 7.72796 17.5362 8.05775 17.6122 8.38755L23.7245 38.2643" stroke="#231F20" stroke-width="3.21815" stroke-miterlimit="10"/>
<path d="M47.6665 58.4272L55.9092 15.9955C56.3404 13.8656 55.1991 11.7346 53.2208 10.8723C52.6121 10.6193 52.0035 10.4922 51.3947 10.4922C49.3657 10.4922 47.4636 11.8365 46.9056 13.916L37.4962 46.6086" stroke="#231F20" stroke-width="3.21815" stroke-miterlimit="10"/>
<path d="M41.9092 67.7595L38.0541 64.8177L34.3005 61.9264C32.9564 60.9118 32.3224 59.2641 32.5253 57.6655C32.6013 57.1078 32.7788 56.525 33.0832 55.9913L33.9963 54.3687C34.7572 53.0244 36.4311 52.5171 37.8005 53.2523L47.6666 58.4522L50.9382 60.1767C54.1846 61.9012 55.4019 65.9343 53.6774 69.1554L47.0831 81.5316L40.5651 89.1408V101.087H10.1303V81.5316L1.83685 55.6363V49.7528C1.83685 47.5714 3.20639 45.6191 5.26081 44.8827L23.7245 38.2641L28.4926 56.3979C28.6195 56.8548 28.6702 57.3105 28.6702 57.7422C28.6702 60.2522 26.8948 62.5104 24.3078 62.9661L17.1558 64.2601C14.6449 64.717 12.1847 63.2707 11.3731 60.8866L8.9636 54.0138" stroke="#231F20" stroke-width="3.21815" stroke-miterlimit="10"/>
<path d="M38.0541 64.8178L27.0977 77.6006" stroke="#231F20" stroke-width="3.21815" stroke-miterlimit="10"/>
<rect x="3.85689" y="100.546" width="40.3765" height="17.4277" rx="4.57243" fill="white" stroke="#231F20" stroke-width="2.28621"/>
<rect x="8.7854" y="101.689" width="34.3049" height="15.1415" rx="2.85777" fill="#FFB800"/>
</svg>
